# AST/ASF file generated using VICON BodyLanguage
# -----------------------------------------------
:version 1.10
:name VICON
:units
  mass 1.0
  length 0.45
  angle deg
:documentation
   .ast/.asf automatically generated from VICON data using
   VICON BodyBuilder and BodyLanguage model FoxedUp or BRILLIANT.MOD
:root
   order TX TY TZ RX RY RZ
   axis XYZ
   position 0 0 0  
   orientation 0 0 0 
:bonedata
  begin
     id 1 
     name lhipjoint
     direction 0.650112 -0.723553 0.232005 
     length 2.45805 
     axis 0 0 0  XYZ
  end
  begin
     id 2 
     name lfemur
     direction 0.34202 -0.939693 0  
     length 7.00073  
     axis 0 0 20  XYZ
    dof rx ry rz
    limits (-160.0 20.0)
           (-70.0 70.0)
           (-60.0 70.0)
  end
  begin
     id 3 
     name ltibia
     direction 0.34202 -0.939693 0   
     length 7.8748   
     axis 0 0 20   XYZ
    dof rx
    limits (-10.0 170.0)
  end
  begin
     id 4 
     name lfoot
     direction 0.0542825 -0.14914 0.987325   
     length 1.75978   
     axis -90 7.62852e-016 20   XYZ
    dof rx rz
    limits (-45.0 90.0)
           (-70.0 20.0)
  end
  begin
     id 5 
     name ltoes
     direction 1.53509e-011 -4.21906e-011 1   
     length 0.893912   
     axis -90 7.62852e-016 20   XYZ
    dof rx
    limits (-90.0 20.0)
  end
  begin
     id 6 
     name rhipjoint
     direction -0.637897 -0.733345 0.235145   
     length 2.42522  
     axis 0 0 0  XYZ 
  end
  begin
     id 7 
     name rfemur
     direction -0.34202 -0.939693 0   
     length 7.02549   
     axis 0 0 -20   XYZ
    dof rx ry rz
    limits (-160.0 20.0)
           (-70.0 70.0)
           (-70.0 60.0)
  end
  begin
     id 8 
     name rtibia
     direction -0.34202 -0.939693 0   
     length 7.71512   
     axis 0 0 -20   XYZ
    dof rx
    limits (-10.0 170.0)
 end
 begin
     id 9 
     name rfoot
     direction -0.0822618 -0.226012 0.970645   
     length 1.90014  
     axis -90 -7.62852e-016 -20   XYZ
    dof rx rz
    limits (-45.0 90.0)
           (-20.0 70.0)
  end
  begin
     id 10 
     name rtoes
     direction -1.53542e-011 -4.21872e-011 1   
     length 0.957341   
     axis -90 -7.62852e-016 -20   XYZ
    dof rx
    limits (-90.0 20.0)
  end
  begin
     id 11 
     name lowerback
     direction -0.0022947 0.999774 -0.0211557   
     length 1.89909   
     axis 0 0 0   XYZ
    dof rx ry rz
    limits (-20.0 45.0)
           (-30.0 30.0)
           (-30.0 30.0)
  end
  begin
     id 12 
     name upperback
     direction 0.0107737 0.998635 0.0511027   
     length 1.8853   
     axis 0 0 0   XYZ
    dof rx ry rz
    limits (-20.0 45.0)
           (-30.0 30.0)
           (-30.0 30.0)
  end
  begin
     id 13 
     name thorax
     direction 0.011824 0.998136 0.0598754   
     length 1.88911   
     axis 0 0 0   XYZ
    dof rx ry rz
    limits (-20.0 45.0)
           (-30.0 30.0)
           (-30.0 30.0)
  end
  begin
     id 14 
     name lowerneck
     direction -0.0685355 0.990319 0.120714   
     length 1.91222   
     axis 0 0 0   XYZ
    dof rx ry rz
    limits (-20.0 45.0)
           (-30.0 30.0)
           (-30.0 30.0)
  end
  begin
     id 15 
     name upperneck
     direction 0.0886204 0.955665 -0.280805   
     length 1.92526   
     axis 0 0 0   XYZ
    dof rx ry rz
    limits (-20.0 45.0)
           (-30.0 30.0)
           (-30.0 30.0)
  end
  begin
     id 16
     name head
     direction 0.0233423 0.993502 -0.111393  
     length 1.96056  
     axis 0 0 0   XYZ
    dof rx ry rz
    limits (-20.0 45.0)
           (-30.0 30.0)
           (-30.0 30.0)
  end
  begin
     id 17 
     name lclavicle
     direction 0.941873 0.32922 0.0670041  
     length 3.31705  
     axis 0 0 0   XYZ
    dof ry rz
    limits (-20.0 10.0)
           (0.0 20.0)
  end
  begin
     id 18 
     name lhumerus
     direction 1 -4.4898e-011 3.38707e-028   
     length 5.29277   
     axis 180 -30 -90   XYZ
    dof rx ry rz
    limits (-60.0 90.0)
           (-90.0 90.0)
           (-90.0 90.0)
  end
  begin
     id 19
     name lradius
     direction 1 -4.48952e-011 1.63213e-028   
     length 2.85226   
     axis 180 -30 -90   XYZ
    dof rx
    limits (-10.0 170.0)
  end
  begin
     id 20
     name lwrist
     direction 1 -4.49001e-011 1.27856e-027   
     length 1.42613   
     axis -1.61767e-015 90 90   XYZ
    dof ry
    limits (-180.0 0.0)
 end
  begin
     id 21 
     name lhand
     direction 1 -4.48976e-011 2.55931e-027   
     length 0.602097   
     axis -1.63363e-015 90 90   XYZ
    dof rx rz
    limits (-90.0 90.0)
           (-45.0 45.0)
  end
  begin
     id 22 
     name lfingers
     direction 1 -4.48986e-011 5.11684e-027   
     length 0.485426   
     axis -3.26723e-015 90 90   XYZ
    dof rx
    limits (0.0 90.0)
  end
  begin
     id 23
     name lthumb
     direction 0.707107 -6.34915e-011 0.707107   
     length 0.696978   
     axis -90 45 -2.25915e-014   XYZ
    dof rx rz
    limits (-45.0 45.0)
           (-45.0 45.0)
  end
  begin
     id 24 
     name rclavicle
     direction -0.939974 0.327078 0.0973096   
     length 3.10337  
     axis 0 0 0   XYZ 
    dof ry rz
    limits (-10.0 20.0)
           (-20.0 0.0)
  end
  begin
     id 25 
     name rhumerus
     direction -1 -4.48975e-011 1.83745e-027  
     length 5.13304   
     axis 180 30 90   XYZ
    dof rx ry rz
    limits (-90.0 60.0)
           (-90.0 90.0)
           (-90.0 90.0)
  end
  begin
     id 26 
     name rradius
     direction -1 -4.48977e-011 7.1775e-029   
     length 2.74305   
     axis 180 30 90   XYZ
    dof rx
    limits (-10.0 170.0)
  end
  begin
     id 27 
     name rwrist
     direction -1 -4.48977e-011 1.27963e-027   
     length 1.37152   
     axis -1.61767e-015 -90 -90   XYZ
    dof ry
    limits (-180.0 0.0)
  end
  begin
     id 28
     name rhand
     direction -1 -4.4888e-011 2.56782e-027   
     length 0.767976   
     axis -1.63363e-015 -90 -90   XYZ
    dof rx rz
    limits (-90.0 90.0)
           (-45.0 45.0)
  end
  begin
     id 29
     name rfingers
     direction -1 -4.48947e-011 5.12384e-027   
     length 0.619162   
     axis -3.26723e-015 -90 -90   XYZ
    dof rx
    limits (0.0 90.0)
  end
  begin
     id 30
     name rthumb
     direction -0.707107 -6.34857e-011 0.707107   
     length 0.888997   
     axis -90 -45 2.25915e-014   XYZ
    dof rx rz
    limits (-45.0 45.0)
           (-45.0 45.0)
  end
:hierarchy
  begin
    root lhipjoint rhipjoint lowerback
    lhipjoint lfemur
    lfemur ltibia
    ltibia lfoot
    lfoot ltoes
    rhipjoint rfemur
    rfemur rtibia
    rtibia rfoot
    rfoot rtoes
    lowerback upperback
    upperback thorax
    thorax lowerneck lclavicle rclavicle
    lowerneck upperneck
    upperneck head
    lclavicle lhumerus
    lhumerus lradius
    lradius lwrist
    lwrist lhand lthumb
    lhand lfingers
    rclavicle rhumerus
    rhumerus rradius
    rradius rwrist
    rwrist rhand rthumb
    rhand rfingers
  end

#!OML:ASF F:\VICON\USERDATA\INSTALL\rory3\rory3.ASF
:FULLY-SPECIFIED
:DEGREES
1288
root 1.56031 16.9403 -1.07746 16.8064 -5.40441 5.86548
lowerback 22.5224 0.0424429 9.58786
upperback 7.9871 2.61169 10.3961
thorax -3.81758 1.21243 5.2638
lowerneck -7.82326 -7.28648 -12.8443
upperneck -1.14665 -8.97064 15.8047
head 2.29923 -4.18053 6.45686
rclavicle 1.27222e-014 -9.54166e-015
rhumerus -27.7429 -59.0119 -6.66252
rradius 50.7057
rwrist -30.8318
rhand -48.2685 -20.5014
rfingers 7.12502
rthumb -20.9264 -49.3926
lclavicle 1.27222e-014 -9.54166e-015
lhumerus -38.7642 -48.1504 41.0967
lradius 44.5575
lwrist 70.0072
lhand -19.0758 34.2594
lfingers 7.12502
lthumb 7.23194 64.1158
rfemur -35.3813 5.04686 4.26296
rtibia 36.3795
rfoot -17.7102 -10.0521
rtoes -29.9356
lfemur -32.7909 -3.49206 -29.0959
ltibia 32.9551
lfoot -15.8332 2.68273
ltoes -10.8016
1289
root 1.57494 16.9465 -1.07115 16.9918 -5.70147 5.96138
lowerback 22.369 -0.00463877 9.50629
upperback 8.01676 2.50167 10.3889
thorax -3.70734 1.16012 5.32866
lowerneck -7.84625 -7.2124 -12.6462
upperneck -1.32683 -8.86024 15.5323
head 2.20948 -4.13384 6.34923
rclavicle -2.8625e-014 1.59028e-014
rhumerus -27.9313 -59.1667 -6.59114
rradius 50.6568
rwrist -30.735
rhand -47.6612 -19.749
rfingers 7.12502
rthumb -20.3428 -48.7036
lclavicle -2.8625e-014 1.59028e-014
lhumerus -38.7258 -47.9824 40.9991
lradius 44.3529
lwrist 69.7987
lhand -18.8255 34.4731
lfingers 7.12502
lthumb 7.47354 64.321
rfemur -35.5709 5.21509 3.9924
rtibia 36.1843
rfoot -17.5238 -10.0745
rtoes -29.6738
lfemur -32.8807 -3.52042 -29.2577
ltibia 32.7533
lfoot -15.9064 2.894
ltoes -10.757
1290
root 1.58661 16.9512 -1.06626 17.1388 -5.97653 6.00489
lowerback 22.6899 0.0492161 9.18875
upperback 7.7729 2.60641 10.6094
thorax -4.17323 1.19426 5.73374
lowerneck -7.66535 -7.21696 -12.7284
upperneck -1.29599 -8.8714 15.2353
head 2.17612 -4.15118 6.27347
rclavicle -3.18055e-015 -4.13472e-014
rhumerus -28.3401 -58.7366 -5.90295
rradius 50.4142
rwrist -30.1806
rhand -47.1186 -19.5599
rfingers 7.12502
rthumb -19.8213 -48.5692
lclavicle -3.18055e-015 -4.13472e-014
lhumerus -39.0966 -47.9192 41.514
lradius 44.1316
lwrist 69.302
lhand -18.5197 34.642
lfingers 7.12502
lthumb 7.76874 64.4793
rfemur -35.7148 5.40856 3.79959
rtibia 35.9986
rfoot -17.4603 -10.0629
rtoes -29.1899
lfemur -32.9046 -3.52529 -29.3519
ltibia 32.5101
lfoot -15.8041 3.06849
ltoes -10.5083
1291
root 1.60036 16.9627 -1.05803 17.199 -6.28291 6.02763
lowerback 22.7852 0.0348405 9.19271
upperback 7.7363 2.60607 10.6064
thorax -4.26186 1.19055 5.72947
lowerneck -7.52197 -7.21822 -12.7705
upperneck -1.45182 -8.87116 15.2553
head 2.11024 -4.15882 6.2932
rclavicle 7.63333e-014 1.27222e-014
rhumerus -29.1341 -58.7081 -5.19724
rradius 50.1552
rwrist -29.2662
rhand -46.7145 -19.9245
rfingers 7.12502
rthumb -19.4328 -48.9734
lclavicle 7.63333e-014 1.27222e-014
lhumerus -39.0284 -47.9192 41.4474
lradius 43.9614
lwrist 69.0198
lhand -18.263 34.649
lfingers 7.12502
lthumb 8.01652 64.477
rfemur -35.7834 5.60552 3.63241
rtibia 35.8117
rfoot -17.4189 -9.92658
rtoes -28.9464
lfemur -32.8116 -3.43606 -29.4616
ltibia 32.2567
lfoot -15.6669 3.22479
ltoes -10.2813
1292
root 1.61741 16.9763 -1.04253 17.2651 -6.74735 6.08555
lowerback 22.4173 -0.0521422 9.43249
upperback 7.95902 2.42695 10.3221
thorax -3.79432 1.11701 5.31463
lowerneck -7.28767 -7.12745 -12.7905
upperneck -1.95212 -8.73736 15.689
head 1.93437 -4.10307 6.45769
rclavicle -3.18055e-015 -7.31528e-014
rhumerus -29.7724 -59.0395 -5.08791
rradius 49.9986
rwrist -28.6817
rhand -46.4055 -19.9842
rfingers 7.12502
rthumb -19.1357 -49.0628
lclavicle -3.18055e-015 -7.31528e-014
lhumerus -38.5146 -47.78 40.6774
lradius 43.7549
lwrist 68.8407
lhand -18.0714 34.6029
lfingers 7.12502
lthumb 8.20145 64.4237
rfemur -35.8775 5.87561 3.37258
rtibia 35.5978
rfoot -17.3678 -9.73194
rtoes -28.682
lfemur -32.7076 -3.29124 -29.6412
ltibia 32.0291
lfoot -15.7469 3.35737
ltoes -9.7601
1293
root 1.62918 16.9782 -1.03177 17.3974 -7.19743 6.20075
lowerback 22.1865 -0.0911227 9.48687
upperback 8.02417 2.32362 10.1103
thorax -3.5898 1.0735 5.0693
lowerneck -6.89292 -7.05681 -12.8028
upperneck -2.38258 -8.64593 15.894
head 1.74453 -4.07803 6.54971
rclavicle 0 5.08889e-014
rhumerus -30.378 -59.0722 -4.88972
rradius 49.9946
rwrist -28.5727
rhand -46.2421 -19.9192
rfingers 7.12502
rthumb -18.9786 -49.0133
lclavicle 0 5.08889e-014
lhumerus -38.2929 -47.9105 40.2726
lradius 43.5538
lwrist 68.6698
lhand -17.7312 34.4547
lfingers 7.12502
lthumb 8.52973 64.2624
rfemur -35.9964 6.1244 3.07105
rtibia 35.3637
rfoot -17.2196 -9.7636
rtoes -29.1101
lfemur -32.7081 -3.14697 -29.871
ltibia 31.7816
lfoot -15.8102 3.57601
ltoes -9.76808
1294
root 1.64108 16.9807 -1.0235 17.4723 -7.55724 6.25336
lowerback 22.2565 -0.103177 9.45368
upperback 8.17521 2.28233 10.0571
thorax -3.45596 1.05554 5.0389
lowerneck -7.49618 -7.11818 -12.628
upperneck -2.33654 -8.68402 15.7439
head 1.84544 -4.07644 6.45172
rclavicle 3.81667e-014 6.36111e-014
rhumerus -30.6863 -59.1694 -4.80241
rradius 50.0914
rwrist -28.7053
rhand -46.4067 -19.989
rfingers 7.12502
rthumb -19.1368 -49.0675
lclavicle 3.81667e-014 6.36111e-014
lhumerus -37.8945 -47.7003 39.9593
lradius 43.3764
lwrist 68.4157
lhand -17.5375 34.4008
lfingers 7.12502
lthumb 8.71668 64.2009
rfemur -35.9964 6.33315 2.86964
rtibia 35.0846
rfoot -17.0242 -9.78303
rtoes -30.0007
lfemur -32.6537 -3.06287 -30.0035
ltibia 31.5285
lfoot -15.7832 3.8055
ltoes -9.99606
